# xmcd CD database file
#
# Track frame offsets:
#	150
#	13435
#	28252
#	40321
#	53783
#	65226
#	78119
#	87234
#	103304
#	122160
#	135600
#	151083
#	162119
#	173498
#	195324
#	205221
#	221177
#	235912
#
# Disc length: 3204 seconds
#
# Revision: 0
# Processed by: cddbd v1.5.2PL0 Copyright (c) Steve Scherf et al.
# Submitted via: CDex 1.70beta2
#
DISCID=fa0c8212
DTITLE=boris Vian - L'ingénieux romanesque [CD2)
DYEAR=2009
DGENRE=Jazz
TTITLE0=I've found a new baby
TTITLE1=Que reste-t-il de nos amours ?
TTITLE2=Honeysuckle rose
TTITLE3=Rosetta
TTITLE4=Dada strain
TTITLE5=Jazz me blues
TTITLE6=Muskrat ramble
TTITLE7=Tin roof blues
TTITLE8=Rose room
TTITLE9=At the jazz band ball
TTITLE10=Riverboat shuffle
TTITLE11=Baby won't you please come home
TTITLE12=Jazz lips
TTITLE13=Basin street blues
TTITLE14=Calypso blues
TTITLE15=Sweet and be bop
TTITLE16=When you're smiling
TTITLE17=Whisperin'
EXTD=YEAR: 2009
EXTT0=
EXTT1=
EXTT2=
EXTT3=
EXTT4=
EXTT5=
EXTT6=
EXTT7=
EXTT8=
EXTT9=
EXTT10=
EXTT11=
EXTT12=
EXTT13=
EXTT14=
EXTT15=
EXTT16=
EXTT17=
PLAYORDER=
